<?xml version="1.0" standalone="no"?>
<!DOCTYPE svg PUBLIC "-//W3C//DTD SVG 20010904//EN"
 "http://www.w3.org/TR/2001/REC-SVG-20010904/DTD/svg10.dtd">
<svg version="1.0" xmlns="http://www.w3.org/2000/svg"
 width="1280.000000pt" height="570.000000pt" viewBox="0 0 1280.000000 570.000000"
 preserveAspectRatio="xMidYMid meet">
<metadata>
Created by potrace 1.15, written by Peter Selinger 2001-2017
</metadata>
<g transform="translate(0.000000,570.000000) scale(0.100000,-0.100000)"
fill="#ffffff" stroke="none">
<path d="M3340 5139 c-445 -50 -849 -248 -1091 -536 -129 -153 -217 -306 -275
-480 -49 -145 -62 -254 -45 -377 l14 -96 -59 -77 c-32 -43 -108 -139 -170
-214 -238 -289 -314 -410 -314 -501 0 -80 28 -118 133 -179 43 -26 85 -42 117
-46 77 -9 86 -20 70 -79 -7 -27 -30 -79 -51 -115 -55 -92 -51 -142 18 -206
l36 -34 -26 -27 c-58 -60 -56 -109 6 -179 80 -91 82 -105 31 -254 -29 -83 -37
-120 -38 -184 -1 -70 2 -86 26 -126 59 -100 174 -175 314 -204 64 -13 126 -16
329 -13 235 3 252 2 284 -17 19 -11 42 -31 52 -45 24 -32 69 -208 69 -269 1
-76 18 -133 53 -169 58 -60 77 -62 611 -61 265 0 507 4 538 8 65 8 103 32 132
81 17 29 20 60 24 311 l5 279 83 0 84 0 0 250 c0 243 -1 250 -20 250 -19 0
-20 6 -17 152 l2 153 -167 3 -168 2 0 -155 0 -155 -25 0 -25 0 0 -250 0 -250
80 0 81 0 -7 -263 c-5 -227 -8 -265 -24 -287 l-17 -25 -519 -3 c-285 -1 -529
0 -542 3 -41 10 -62 41 -62 91 0 60 -35 229 -62 302 -28 76 -79 126 -149 146
-46 14 -102 16 -320 14 -248 -2 -268 -1 -329 20 -85 28 -148 70 -188 126 -44
61 -43 111 8 271 22 69 40 138 40 153 -1 38 -30 98 -78 159 l-42 52 40 46 c55
64 53 84 -16 150 -38 37 -53 58 -47 67 4 7 20 31 35 53 34 51 72 186 63 225
-9 43 -56 77 -122 89 -73 14 -179 66 -200 98 -15 22 -15 29 0 77 22 70 75 144
319 448 224 278 228 287 209 378 -42 198 39 485 204 715 92 129 248 275 391
367 501 321 1359 342 1942 49 375 -189 624 -467 747 -834 54 -162 69 -265 69
-477 1 -210 -15 -327 -70 -526 -66 -244 -102 -316 -296 -601 -163 -240 -209
-348 -216 -508 l-4 -100 -62 -1 c-66 -1 -143 -29 -184 -67 -78 -73 -101 -223
-49 -323 31 -60 84 -109 167 -153 78 -42 120 -78 136 -118 31 -74 2 -167 -61
-197 -51 -24 -153 -18 -213 13 -24 12 -45 21 -46 19 -1 -2 -8 -27 -14 -57 -15
-65 -10 -73 61 -98 77 -26 198 -24 260 6 150 73 202 280 106 425 -29 43 -51
60 -205 156 -73 45 -99 90 -91 158 3 32 13 53 36 76 29 29 36 31 104 31 49 0
83 -6 106 -18 19 -9 36 -17 38 -17 1 0 3 64 3 143 0 238 27 309 237 620 154
230 178 273 232 430 86 251 121 452 121 705 0 203 -22 349 -77 514 -199 601
-764 1003 -1528 1088 -106 12 -428 11 -535 -1z"/>
<path d="M5378 1800 c-118 -20 -221 -98 -278 -209 -43 -86 -60 -169 -60 -296
0 -189 44 -311 144 -403 74 -67 133 -87 251 -86 52 1 107 8 130 17 l40 14 -3
59 c-1 32 -4 59 -5 60 -2 2 -21 -3 -42 -11 -50 -18 -145 -19 -199 -3 -59 18
-128 90 -156 164 -27 72 -38 231 -21 314 23 111 80 198 154 237 46 23 152 28
207 9 25 -8 48 -12 51 -8 4 4 12 29 17 57 12 56 9 59 -48 74 -57 15 -132 19
-182 11z"/>
<path d="M6747 1800 c-184 -46 -288 -228 -288 -505 0 -180 45 -316 132 -403
62 -63 120 -87 209 -86 169 1 282 106 336 314 24 90 23 292 0 380 -50 185
-152 289 -296 303 -30 3 -72 2 -93 -3z m152 -148 c78 -56 121 -182 121 -349 0
-163 -34 -268 -108 -335 -102 -92 -236 -34 -293 126 -29 84 -37 264 -15 359
29 123 88 208 154 223 15 3 32 7 37 8 20 5 79 -13 104 -32z"/>
<path d="M7531 1800 c-93 -20 -182 -97 -228 -197 -39 -84 -53 -148 -60 -263
-10 -180 36 -343 122 -438 117 -130 333 -130 450 0 80 88 125 232 125 401 0
292 -119 481 -315 501 -28 3 -70 1 -94 -4z m147 -139 c37 -19 81 -90 105 -165
18 -57 22 -95 22 -191 0 -138 -23 -232 -75 -303 -57 -79 -152 -100 -228 -49
-131 86 -172 416 -76 607 55 112 156 152 252 101z"/>
<path d="M9938 1781 c-74 -24 -116 -51 -166 -105 -87 -94 -126 -213 -125 -381
0 -228 75 -380 221 -452 53 -26 66 -28 177 -28 87 0 136 5 178 18 l57 18 0
179 0 180 346 0 347 0 -5 -114 -5 -114 81 -6 c44 -4 206 -8 359 -9 l277 -2 0
28 0 27 218 0 219 0 6 232 c5 178 4 234 -6 240 -7 4 -105 8 -219 8 l-208 0 0
28 0 29 -142 6 c-79 4 -241 7 -360 7 l-218 0 0 -112 0 -113 -515 3 -515 4 0
-71 0 -71 110 0 110 0 0 -134 c0 -130 -1 -134 -22 -140 -36 -9 -129 -7 -169 4
-56 16 -122 80 -155 152 -28 60 -29 69 -29 208 0 139 1 148 29 208 31 68 84
122 143 148 49 21 173 22 230 2 l43 -16 11 42 c5 22 13 49 15 59 14 47 -209
75 -318 38z"/>
<path d="M5740 1305 l0 -485 65 0 65 0 0 220 0 220 165 0 165 0 0 -220 0 -220
65 0 65 0 0 485 0 485 -65 0 -65 0 0 -200 0 -200 -165 0 -165 0 0 200 0 200
-65 0 -65 0 0 -485z"/>
<path d="M8070 1305 l0 -485 220 0 220 0 0 60 0 60 -155 0 -155 0 0 425 0 425
-65 0 -65 0 0 -485z"/>
<path d="M8620 1305 l0 -485 65 0 65 0 0 485 0 485 -65 0 -65 0 0 -485z"/>
<path d="M8920 1305 l0 -485 61 0 62 0 -5 388 -4 388 51 -125 c28 -69 107
-244 176 -388 l124 -263 65 0 65 0 0 485 0 485 -59 0 -58 0 3 -377 4 -378 -46
115 c-26 63 -103 232 -172 375 l-125 260 -71 3 -71 3 0 -486z"/>
</g>
</svg>
